<?xml version="1.0" standalone="no"?>
<!DOCTYPE svg PUBLIC "-//W3C//DTD SVG 20010904//EN"
 "http://www.w3.org/TR/2001/REC-SVG-20010904/DTD/svg10.dtd">
<svg version="1.0" xmlns="http://www.w3.org/2000/svg"
 width="1024.000000pt" height="135.000000pt" viewBox="0 0 1024.000000 135.000000"
 preserveAspectRatio="xMidYMid meet">

<g transform="translate(0.000000,135.000000) scale(0.100000,-0.100000)"
fill="#000" stroke="none">
<path d="M787 993 c-13 -12 -7 -32 11 -36 14 -4 13 -5 -4 -6 -13 -1 -27 -15
-41 -43 -11 -24 -47 -72 -80 -108 -111 -120 -138 -161 -154 -227 l-7 -33 57
-2 56 -1 -57 -6 -56 -6 13 -40 c8 -22 31 -56 52 -75 l38 -35 3 48 3 47 42 -1
42 -2 -40 -7 -40 -7 42 -2 c39 -1 42 1 53 35 7 20 36 71 65 114 53 77 76 121
88 172 7 26 6 27 -45 31 l-53 3 53 2 c49 2 52 4 52 28 0 24 -3 26 -35 22 -19
-2 -35 0 -35 4 0 4 16 8 35 8 44 0 46 19 3 21 -31 2 -31 2 -5 6 30 5 32 15 16
62 -7 20 -16 30 -25 27 -7 -3 -15 0 -18 7 -2 7 -5 4 -5 -5 -1 -10 -5 -18 -11
-18 -5 0 -7 7 -4 15 6 16 2 20 -9 8z m66 -80 c-7 -2 -19 -2 -25 0 -7 3 -2 5
12 5 14 0 19 -2 13 -5z m-33 -140 c-24 -3 -48 -10 -52 -16 -5 -8 -8 -8 -8 -1
0 19 13 24 59 22 l46 -1 -45 -4z m-202 -190 c-15 -2 -42 -2 -60 0 -18 2 -6 4
27 4 33 0 48 -2 33 -4z m-10 -20 c-16 -2 -40 -2 -55 0 -16 2 -3 4 27 4 30 0
43 -2 28 -4z m-5 -50 c-13 -2 -35 -2 -50 0 -16 2 -5 4 22 4 28 0 40 -2 28 -4z"/>
<path d="M526 827 c-10 -8 -16 -19 -13 -24 4 -6 0 -17 -9 -24 -13 -11 -14 -9
-9 14 5 17 3 27 -4 27 -6 0 -11 -13 -11 -28 0 -16 -9 -37 -20 -47 -20 -18 -20
-17 -20 13 0 38 -9 39 -58 8 -49 -31 -78 -63 -97 -108 -20 -49 -21 -48 23 -49
20 0 57 -4 82 -9 38 -7 33 -8 -35 -6 -44 2 -63 1 -42 -1 49 -6 48 -23 -3 -23
-39 0 -39 0 -29 -27 13 -34 64 -90 101 -109 32 -17 38 -17 38 -4 0 6 -7 10
-15 10 -9 0 -15 9 -15 22 l0 21 24 -22 c14 -13 22 -29 20 -36 -8 -20 12 -27
27 -9 10 13 10 22 0 47 -7 18 -17 46 -22 63 -8 27 -12 30 -44 26 -21 -3 -35 0
-35 7 0 6 17 11 40 11 34 0 40 3 40 20 0 35 40 102 97 162 42 44 54 62 48 75
-8 17 -8 17 -12 1 -5 -22 -20 -23 -25 -2 -3 13 -6 13 -22 1z m-134 -101 c3
-14 1 -31 -3 -38 -6 -8 -9 1 -9 25 0 42 6 48 12 13z m-35 -248 c-3 -7 -5 -2
-5 12 0 14 2 19 5 13 2 -7 2 -19 0 -25z"/>
<path d="M954 753 c-10 -31 -46 -96 -88 -158 -48 -72 -65 -116 -66 -171 0 -50
17 -61 61 -39 25 14 29 21 29 58 0 36 6 49 36 78 l36 34 -4 -58 c-4 -70 14
-72 23 -1 l6 49 1 -42 c1 -24 6 -43 11 -43 13 0 33 27 24 32 -4 3 -3 4 4 2 14
-3 39 25 46 54 5 21 2 22 -50 22 -46 0 -54 3 -49 16 3 9 6 20 6 25 0 5 22 9
50 9 l50 0 -6 33 c-7 37 -50 117 -64 117 -5 0 -11 -10 -13 -22 l-4 -23 -8 23
c-9 26 -23 29 -31 5z m-91 -270 c-7 -2 -21 -2 -30 0 -10 3 -4 5 12 5 17 0 24
-2 18 -5z m-9 -41 c2 -4 -6 -9 -20 -10 -13 -1 -24 3 -24 8 0 12 37 14 44 2z
m-7 -44 c-3 -8 -6 -5 -6 6 -1 11 2 17 5 13 3 -3 4 -12 1 -19z"/>
<path d="M632 398 c4 -38 25 -49 31 -16 l4 23 8 -23 c6 -18 10 -20 21 -11 8 6
14 22 14 35 0 21 -5 24 -41 24 -39 0 -40 -1 -37 -32z"/>
</g>
</svg>
